# xmcd
#
# Track frame offsets:
#	150
#	13036
#	25283
#	38744
#	50231
#	61826
#	72293
#	84143
#	95481
#	107574
#	120042
#	132000
#	144244
#	157450
#	170764
#	181546
#	193939
#	206532
#	219525
#	229912
#
# Disc length: 3189 seconds
#
# Revision: 1
# Processed by: cddbd v1.5.2PL0 Copyright (c) Steve Scherf et al.
# Submitted via: audiograbber 1.83.01
#
DISCID=120c7314
DTITLE=Flatt and Scruggs - Mountain Breakdown - CD2
DYEAR=2006
DGENRE=Bluegrass
TTITLE0=Pain In My Heart
TTITLE1=Roll In My Sweet Baby's Arms
TTITLE2=Back To The Cross
TTITLE3=Farewell Blues
TTITLE4=Salty Dog Blues
TTITLE5=Take Me In A Lifeboat
TTITLE6=Will The Roses Bloom
TTITLE7=I'll Just Pretend
TTITLE8=Come Back Darling
TTITLE9=We Can't Be Darlings Anymore
TTITLE10=My Darling's Last Goodbye
TTITLE11=Don't Get Above Your Raisin'
TTITLE12=I'm Gonna Settle Down
TTITLE13='Tis Sweet To Be Remembered
TTITLE14=Get In Line Brother
TTITLE15=Why Did You Wander
TTITLE16=Thinking About You
TTITLE17=Reunion In Heaven
TTITLE18=Foggy Mountain Chimes
TTITLE19=Foggy Mountain Special
EXTD=
EXTT0=
EXTT1=
EXTT2=
EXTT3=
EXTT4=
EXTT5=
EXTT6=
EXTT7=
EXTT8=
EXTT9=
EXTT10=
EXTT11=
EXTT12=
EXTT13=
EXTT14=
EXTT15=
EXTT16=
EXTT17=
EXTT18=
EXTT19=
PLAYORDER=
